<svg xmlns="http://www.w3.org/2000/svg" xmlns:xlink="http://www.w3.org/1999/xlink" width="3200" zoomAndPan="magnify" viewBox="0 0 2400 1049.999947" height="1400" preserveAspectRatio="xMidYMid meet" version="1.0"><path fill="#bccfdd" d="M 0.75 421.441406 L -6.175781 421.441406 C -6.808594 421.441406 -7.425781 421.535156 -8.023438 421.722656 L -8.46875 420.292969 C -7.726562 420.058594 -6.960938 419.941406 -6.175781 419.941406 L 0.75 419.941406 Z M -9.246094 422.257812 C -11.316406 423.445312 -12.351562 425.234375 -12.351562 427.617188 L -12.351562 429.378906 L -13.851562 429.378906 L -13.851562 427.617188 C -13.851562 424.652344 -12.566406 422.433594 -9.992188 420.957031 Z M -12.351562 430.878906 L -12.351562 435.121094 C -12.351562 436.652344 -12.101562 438.140625 -11.605469 439.585938 L -13.023438 440.074219 C -13.574219 438.46875 -13.851562 436.820312 -13.851562 435.121094 L -13.851562 430.878906 Z M -11.070312 440.902344 C -10.390625 442.359375 -9.484375 443.65625 -8.347656 444.796875 C -7.4375 445.703125 -6.425781 446.46875 -5.300781 447.089844 L -6.027344 448.402344 C -7.273438 447.710938 -8.398438 446.863281 -9.40625 445.855469 C -10.667969 444.59375 -11.675781 443.152344 -12.429688 441.535156 Z M -4.023438 447.710938 C -2.3125 448.4375 -0.53125 448.800781 1.328125 448.800781 L 4.566406 448.800781 L 4.566406 450.300781 L 1.328125 450.300781 C -0.734375 450.300781 -2.714844 449.898438 -4.609375 449.09375 Z M 6.066406 448.800781 L 15.066406 448.800781 L 15.066406 450.300781 L 6.066406 450.300781 Z M 16.566406 448.800781 L 25.566406 448.800781 L 25.566406 450.300781 L 16.566406 450.300781 Z M 27.066406 448.800781 L 36.066406 448.800781 L 36.066406 450.300781 L 27.066406 450.300781 Z M 37.566406 448.800781 L 46.566406 448.800781 L 46.566406 450.300781 L 37.566406 450.300781 Z M 48.066406 448.800781 L 57.066406 448.800781 L 57.066406 450.300781 L 48.066406 450.300781 Z M 58.566406 448.800781 L 67.566406 448.800781 L 67.566406 450.300781 L 58.566406 450.300781 Z M 69.066406 448.800781 L 78.066406 448.800781 L 78.066406 450.300781 L 69.066406 450.300781 Z M 79.566406 448.800781 L 88.566406 448.800781 L 88.566406 450.300781 L 79.566406 450.300781 Z M 90.066406 448.800781 L 99.066406 448.800781 L 99.066406 450.300781 L 90.066406 450.300781 Z M 100.566406 448.800781 L 109.566406 448.800781 L 109.566406 450.300781 L 100.566406 450.300781 Z M 111.066406 448.800781 L 120.066406 448.800781 L 120.066406 450.300781 L 111.066406 450.300781 Z M 121.566406 448.800781 L 130.5625 448.800781 L 130.5625 450.300781 L 121.566406 450.300781 Z M 132.0625 448.800781 L 141.0625 448.800781 L 141.0625 450.300781 L 132.0625 450.300781 Z M 142.5625 448.800781 L 151.5625 448.800781 L 151.5625 450.300781 L 142.5625 450.300781 Z M 153.0625 448.800781 L 162.0625 448.800781 L 162.0625 450.300781 L 153.0625 450.300781 Z M 163.5625 448.800781 L 172.566406 448.800781 L 172.566406 450.300781 L 163.5625 450.300781 Z M 174.0625 448.800781 L 183.0625 448.800781 L 183.0625 450.300781 L 174.0625 450.300781 Z M 184.5625 448.800781 L 193.566406 448.800781 L 193.566406 450.300781 L 184.5625 450.300781 Z M 195.066406 448.800781 L 204.066406 448.800781 L 204.066406 450.300781 L 195.066406 450.300781 Z M 205.5625 448.800781 L 214.5625 448.800781 L 214.5625 450.300781 L 205.5625 450.300781 Z M 216.0625 448.800781 L 225.0625 448.800781 L 225.0625 450.300781 L 216.0625 450.300781 Z M 226.5625 448.800781 L 235.5625 448.800781 L 235.5625 450.300781 L 226.5625 450.300781 Z M 237.0625 448.800781 L 246.0625 448.800781 L 246.0625 450.300781 L 237.0625 450.300781 Z M 247.5625 448.800781 L 256.5625 448.800781 L 256.5625 450.300781 L 247.5625 450.300781 Z M 258.0625 448.800781 L 267.0625 448.800781 L 267.0625 450.300781 L 258.0625 450.300781 Z M 268.5625 448.800781 L 277.5625 448.800781 L 277.5625 450.300781 L 268.5625 450.300781 Z M 279.0625 448.800781 L 288.0625 448.800781 L 288.0625 450.300781 L 279.0625 450.300781 Z M 289.5625 448.800781 L 298.5625 448.800781 L 298.5625 450.300781 L 289.5625 450.300781 Z M 300.0625 448.800781 L 309.0625 448.800781 L 309.0625 450.300781 L 300.0625 450.300781 Z M 310.5625 448.800781 L 319.5625 448.800781 L 319.5625 450.300781 L 310.5625 450.300781 Z M 321.0625 448.800781 L 330.0625 448.800781 L 330.0625 450.300781 L 321.0625 450.300781 Z M 331.5625 448.800781 L 340.5625 448.800781 L 340.5625 450.300781 L 331.5625 450.300781 Z M 342.0625 448.800781 L 351.0625 448.800781 L 351.0625 450.300781 L 342.0625 450.300781 Z M 352.5625 448.800781 L 361.5625 448.800781 L 361.5625 450.300781 L 352.5625 450.300781 Z M 363.0625 448.800781 L 372.0625 448.800781 L 372.0625 450.300781 L 363.0625 450.300781 Z M 373.5625 448.800781 L 382.5625 448.800781 L 382.5625 450.300781 L 373.5625 450.300781 Z M 384.0625 448.800781 L 393.0625 448.800781 L 393.0625 450.300781 L 384.0625 450.300781 Z M 394.5625 448.800781 L 403.5625 448.800781 L 403.5625 450.300781 L 394.5625 450.300781 Z M 405.0625 448.800781 L 414.0625 448.800781 L 414.0625 450.300781 L 405.0625 450.300781 Z M 415.5625 448.800781 L 424.5625 448.800781 L 424.5625 450.300781 L 415.5625 450.300781 Z M 426.0625 448.800781 L 435.0625 448.800781 L 435.0625 450.300781 L 426.0625 450.300781 Z M 436.5625 448.800781 L 445.5625 448.800781 L 445.5625 450.300781 L 436.5625 450.300781 Z M 447.0625 448.800781 L 456.0625 448.800781 L 456.0625 450.300781 L 447.0625 450.300781 Z M 457.5625 448.800781 L 466.5625 448.800781 L 466.5625 450.300781 L 457.5625 450.300781 Z M 468.0625 448.800781 L 477.0625 448.800781 L 477.0625 450.300781 L 468.0625 450.300781 Z M 478.5625 448.800781 L 487.5625 448.800781 L 487.5625 450.300781 L 478.5625 450.300781 Z M 489.0625 448.800781 L 498.0625 448.800781 L 498.0625 450.300781 L 489.0625 450.300781 Z M 499.5625 448.800781 L 508.5625 448.800781 L 508.5625 450.300781 L 499.5625 450.300781 Z M 510.0625 448.800781 L 519.0625 448.800781 L 519.0625 450.300781 L 510.0625 450.300781 Z M 520.5625 448.800781 L 529.5625 448.800781 L 529.5625 450.300781 L 520.5625 450.300781 Z M 531.0625 448.800781 L 540.0625 448.800781 L 540.0625 450.300781 L 531.0625 450.300781 Z M 541.5625 448.800781 L 550.5625 448.800781 L 550.5625 450.300781 L 541.5625 450.300781 Z M 552.0625 448.800781 L 561.0625 448.800781 L 561.0625 450.300781 L 552.0625 450.300781 Z M 562.5625 448.800781 L 571.5625 448.800781 L 571.5625 450.300781 L 562.5625 450.300781 Z M 573.0625 448.800781 L 582.0625 448.800781 L 582.0625 450.300781 L 573.0625 450.300781 Z M 583.5625 448.800781 L 592.5625 448.800781 L 592.5625 450.300781 L 583.5625 450.300781 Z M 594.0625 448.800781 L 603.0625 448.800781 L 603.0625 450.300781 L 594.0625 450.300781 Z M 604.5625 448.800781 L 613.5625 448.800781 L 613.5625 450.300781 L 604.5625 450.300781 Z M 615.0625 448.800781 L 624.0625 448.800781 L 624.0625 450.300781 L 615.0625 450.300781 Z M 625.5625 448.800781 L 634.5625 448.800781 L 634.5625 450.300781 L 625.5625 450.300781 Z M 636.0625 448.800781 L 645.0625 448.800781 L 645.0625 450.300781 L 636.0625 450.300781 Z M 646.5625 448.800781 L 655.5625 448.800781 L 655.5625 450.300781 L 646.5625 450.300781 Z M 657.0625 448.800781 L 666.0625 448.800781 L 666.0625 450.300781 L 657.0625 450.300781 Z M 667.613281 448.824219 C 670.816406 448.96875 673.78125 449.878906 676.511719 451.546875 L 675.726562 452.824219 C 673.21875 451.292969 670.492188 450.457031 667.542969 450.320312 Z M 677.8125 452.421875 C 680.402344 454.320312 682.375 456.71875 683.730469 459.617188 L 682.375 460.253906 C 681.125 457.585938 679.308594 455.378906 676.925781 453.628906 Z M 684.335938 461.0625 C 685.105469 463.148438 685.488281 465.3125 685.488281 467.550781 L 685.488281 470.207031 L 683.988281 470.207031 L 683.988281 467.550781 C 683.988281 465.488281 683.636719 463.5 682.929688 461.582031 Z M 685.488281 471.707031 L 685.488281 480.707031 L 683.988281 480.707031 L 683.988281 471.707031 Z M 685.488281 482.207031 L 685.488281 491.207031 L 683.988281 491.207031 L 683.988281 482.207031 Z M 685.488281 492.707031 L 685.488281 501.707031 L 683.988281 501.707031 L 683.988281 492.707031 Z M 685.488281 503.207031 L 685.488281 512.207031 L 683.988281 512.207031 L 683.988281 503.207031 Z M 685.488281 513.707031 L 685.488281 522.707031 L 683.988281 522.707031 L 683.988281 513.707031 Z M 685.488281 524.207031 L 685.488281 533.207031 L 683.988281 533.207031 L 683.988281 524.207031 Z M 685.488281 534.707031 L 685.488281 543.707031 L 683.988281 543.707031 L 683.988281 534.707031 Z M 685.488281 545.207031 L 685.488281 554.207031 L 683.988281 554.207031 L 683.988281 545.207031 Z M 685.488281 555.707031 L 685.488281 564.707031 L 683.988281 564.707031 L 683.988281 555.707031 Z M 685.488281 566.207031 L 685.488281 575.207031 L 683.988281 575.207031 L 683.988281 566.207031 Z M 685.488281 576.707031 L 685.488281 585.707031 L 683.988281 585.707031 L 683.988281 576.707031 Z M 685.488281 587.207031 L 685.488281 596.207031 L 683.988281 596.207031 L 683.988281 587.207031 Z M 685.488281 597.707031 L 685.488281 606.707031 L 683.988281 606.707031 L 683.988281 597.707031 Z M 685.488281 608.207031 L 685.488281 617.207031 L 683.988281 617.207031 L 683.988281 608.207031 Z M 685.488281 618.707031 L 685.488281 627.707031 L 683.988281 627.707031 L 683.988281 618.707031 Z M 685.488281 629.207031 L 685.488281 638.207031 L 683.988281 638.207031 L 683.988281 629.207031 Z M 685.488281 639.707031 L 685.488281 648.707031 L 683.988281 648.707031 L 683.988281 639.707031 Z M 685.488281 650.207031 L 685.488281 659.207031 L 683.988281 659.207031 L 683.988281 650.207031 Z M 685.488281 660.707031 L 685.488281 669.707031 L 683.988281 669.707031 L 683.988281 660.707031 Z M 685.488281 671.207031 L 685.488281 680.207031 L 683.988281 680.207031 L 683.988281 671.207031 Z M 685.488281 681.707031 L 685.488281 690.707031 L 683.988281 690.707031 L 683.988281 681.707031 Z M 685.488281 692.207031 L 685.488281 701.207031 L 683.988281 701.207031 L 683.988281 692.207031 Z M 685.488281 702.707031 L 685.488281 711.707031 L 683.988281 711.707031 L 683.988281 702.707031 Z M 685.488281 713.207031 L 685.488281 722.207031 L 683.988281 722.207031 L 683.988281 713.207031 Z M 685.488281 723.707031 L 685.488281 732.707031 L 683.988281 732.707031 L 683.988281 723.707031 Z M 685.488281 734.207031 L 685.488281 743.207031 L 683.988281 743.207031 L 683.988281 734.207031 Z M 685.488281 744.707031 L 685.488281 753.707031 L 683.988281 753.707031 L 683.988281 744.707031 Z M 685.488281 755.207031 L 685.488281 764.207031 L 683.988281 764.207031 L 683.988281 755.207031 Z M 685.488281 765.707031 L 685.488281 774.707031 L 683.988281 774.707031 L 683.988281 765.707031 Z M 685.488281 776.207031 L 685.488281 785.207031 L 683.988281 785.207031 L 683.988281 776.207031 Z M 685.488281 786.707031 L 685.488281 795.707031 L 683.988281 795.707031 L 683.988281 786.707031 Z M 685.488281 797.207031 L 685.488281 806.207031 L 683.988281 806.207031 L 683.988281 797.207031 Z M 685.488281 807.707031 L 685.488281 816.707031 L 683.988281 816.707031 L 683.988281 807.707031 Z M 685.488281 818.207031 L 685.488281 827.207031 L 683.988281 827.207031 L 683.988281 818.207031 Z M 685.488281 828.707031 L 685.488281 837.707031 L 683.988281 837.707031 L 683.988281 828.707031 Z M 685.488281 839.207031 L 685.488281 848.207031 L 683.988281 848.207031 L 683.988281 839.207031 Z M 685.488281 849.707031 L 685.488281 856.09375 C 685.488281 856.9375 685.550781 857.777344 685.671875 858.609375 L 684.1875 858.824219 C 684.054688 857.921875 683.988281 857.011719 683.988281 856.09375 L 683.988281 849.707031 Z M 685.9375 860.015625 C 686.605469 862.882812 687.925781 865.414062 689.902344 867.617188 L 688.785156 868.617188 C 686.636719 866.226562 685.199219 863.472656 684.476562 860.355469 Z M 690.910156 868.644531 C 693.0625 870.675781 695.558594 872.058594 698.40625 872.792969 L 698.03125 874.246094 C 694.9375 873.445312 692.21875 871.941406 689.878906 869.738281 Z M 699.8125 873.09375 C 700.777344 873.261719 701.753906 873.34375 702.738281 873.34375 L 708.6875 873.34375 L 708.6875 874.84375 L 702.738281 874.84375 C 701.667969 874.84375 700.609375 874.753906 699.5625 874.574219 Z M 710.1875 873.34375 L 719.1875 873.34375 L 719.1875 874.84375 L 710.1875 874.84375 Z M 720.6875 873.34375 L 729.6875 873.34375 L 729.6875 874.84375 L 720.6875 874.84375 Z M 731.1875 873.34375 L 740.1875 873.34375 L 740.1875 874.84375 L 731.1875 874.84375 Z M 741.6875 873.34375 L 750.6875 873.34375 L 750.6875 874.84375 L 741.6875 874.84375 Z M 752.1875 873.34375 L 761.1875 873.34375 L 761.1875 874.84375 L 752.1875 874.84375 Z M 762.6875 873.34375 L 771.6875 873.34375 L 771.6875 874.84375 L 762.6875 874.84375 Z M 773.1875 873.34375 L 782.1875 873.34375 L 782.1875 874.84375 L 773.1875 874.84375 Z M 783.6875 873.34375 L 792.6875 873.34375 L 792.6875 874.84375 L 783.6875 874.84375 Z M 794.1875 873.34375 L 803.1875 873.34375 L 803.1875 874.84375 L 794.1875 874.84375 Z M 804.6875 873.34375 L 813.6875 873.34375 L 813.6875 874.84375 L 804.6875 874.84375 Z M 815.1875 873.34375 L 824.1875 873.34375 L 824.1875 874.84375 L 815.1875 874.84375 Z M 825.6875 873.34375 L 834.6875 873.34375 L 834.6875 874.84375 L 825.6875 874.84375 Z M 836.1875 873.34375 L 845.1875 873.34375 L 845.1875 874.84375 L 836.1875 874.84375 Z M 846.6875 873.34375 L 855.6875 873.34375 L 855.6875 874.84375 L 846.6875 874.84375 Z M 857.1875 873.34375 L 866.1875 873.34375 L 866.1875 874.84375 L 857.1875 874.84375 Z M 867.6875 873.34375 L 876.6875 873.34375 L 876.6875 874.84375 L 867.6875 874.84375 Z M 878.1875 873.34375 L 887.1875 873.34375 L 887.1875 874.84375 L 878.1875 874.84375 Z M 888.6875 873.34375 L 897.6875 873.34375 L 897.6875 874.84375 L 888.6875 874.84375 Z M 899.1875 873.34375 L 908.1875 873.34375 L 908.1875 874.84375 L 899.1875 874.84375 Z M 909.6875 873.34375 L 918.6875 873.34375 L 918.6875 874.84375 L 909.6875 874.84375 Z M 920.1875 873.34375 L 929.1875 873.34375 L 929.1875 874.84375 L 920.1875 874.84375 Z M 930.6875 873.34375 L 939.6875 873.34375 L 939.6875 874.84375 L 930.6875 874.84375 Z M 941.1875 873.34375 L 950.1875 873.34375 L 950.1875 874.84375 L 941.1875 874.84375 Z M 951.6875 873.34375 L 960.6875 873.34375 L 960.6875 874.84375 L 951.6875 874.84375 Z M 962.1875 873.34375 L 971.1875 873.34375 L 971.1875 874.84375 L 962.1875 874.84375 Z M 972.6875 873.34375 L 981.6875 873.34375 L 981.6875 874.84375 L 972.6875 874.84375 Z M 983.1875 873.34375 L 992.1875 873.34375 L 992.1875 874.84375 L 983.1875 874.84375 Z M 993.6875 873.34375 L 1002.6875 873.34375 L 1002.6875 874.84375 L 993.6875 874.84375 Z M 1004.1875 873.34375 L 1013.1875 873.34375 L 1013.1875 874.84375 L 1004.1875 874.84375 Z M 1014.6875 873.34375 L 1023.6875 873.34375 L 1023.6875 874.84375 L 1014.6875 874.84375 Z M 1025.1875 873.34375 L 1034.1875 873.34375 L 1034.1875 874.84375 L 1025.1875 874.84375 Z M 1035.6875 873.34375 L 1044.6875 873.34375 L 1044.6875 874.84375 L 1035.6875 874.84375 Z M 1046.1875 873.34375 L 1055.1875 873.34375 L 1055.1875 874.84375 L 1046.1875 874.84375 Z M 1056.6875 873.34375 L 1065.6875 873.34375 L 1065.6875 874.84375 L 1056.6875 874.84375 Z M 1067.1875 873.34375 L 1076.1875 873.34375 L 1076.1875 874.84375 L 1067.1875 874.84375 Z M 1077.6875 873.34375 L 1086.6875 873.34375 L 1086.6875 874.84375 L 1077.6875 874.84375 Z M 1088.1875 873.34375 L 1097.1875 873.34375 L 1097.1875 874.84375 L 1088.1875 874.84375 Z M 1098.6875 873.34375 L 1107.6875 873.34375 L 1107.6875 874.84375 L 1098.6875 874.84375 Z M 1109.1875 873.34375 L 1118.1875 873.34375 L 1118.1875 874.84375 L 1109.1875 874.84375 Z M 1119.6875 873.34375 L 1128.6875 873.34375 L 1128.6875 874.84375 L 1119.6875 874.84375 Z M 1130.1875 873.34375 L 1139.1875 873.34375 L 1139.1875 874.84375 L 1130.1875 874.84375 Z M 1140.6875 873.34375 L 1149.6875 873.34375 L 1149.6875 874.84375 L 1140.6875 874.84375 Z M 1151.1875 873.34375 L 1160.1875 873.34375 L 1160.1875 874.84375 L 1151.1875 874.84375 Z M 1161.6875 873.34375 L 1170.6875 873.34375 L 1170.6875 874.84375 L 1161.6875 874.84375 Z M 1172.1875 873.34375 L 1181.1875 873.34375 L 1181.1875 874.84375 L 1172.1875 874.84375 Z M 1182.6875 873.34375 L 1191.6875 873.34375 L 1191.6875 874.84375 L 1182.6875 874.84375 Z M 1193.1875 873.34375 L 1202.1875 873.34375 L 1202.1875 874.84375 L 1193.1875 874.84375 Z M 1203.6875 873.34375 L 1212.6875 873.34375 L 1212.6875 874.84375 L 1203.6875 874.84375 Z M 1214.1875 873.34375 L 1223.1875 873.34375 L 1223.1875 874.84375 L 1214.1875 874.84375 Z M 1224.6875 873.34375 L 1233.6875 873.34375 L 1233.6875 874.84375 L 1224.6875 874.84375 Z M 1235.1875 873.34375 L 1244.1875 873.34375 L 1244.1875 874.84375 L 1235.1875 874.84375 Z M 1245.6875 873.34375 L 1254.6875 873.34375 L 1254.6875 874.84375 L 1245.6875 874.84375 Z M 1256.1875 873.34375 L 1265.1875 873.34375 L 1265.1875 874.84375 L 1256.1875 874.84375 Z M 1266.6875 873.34375 L 1275.6875 873.34375 L 1275.6875 874.84375 L 1266.6875 874.84375 Z M 1277.1875 873.34375 L 1286.1875 873.34375 L 1286.1875 874.84375 L 1277.1875 874.84375 Z M 1287.6875 873.34375 L 1296.6875 873.34375 L 1296.6875 874.84375 L 1287.6875 874.84375 Z M 1298.1875 873.34375 L 1307.1875 873.34375 L 1307.1875 874.84375 L 1298.1875 874.84375 Z M 1308.6875 873.34375 L 1317.6875 873.34375 L 1317.6875 874.84375 L 1308.6875 874.84375 Z M 1319.1875 873.34375 L 1328.1875 873.34375 L 1328.1875 874.84375 L 1319.1875 874.84375 Z M 1329.6875 873.34375 L 1338.6875 873.34375 L 1338.6875 874.84375 L 1329.6875 874.84375 Z M 1340.1875 873.34375 L 1349.1875 873.34375 L 1349.1875 874.84375 L 1340.1875 874.84375 Z M 1350.6875 873.34375 L 1359.6875 873.34375 L 1359.6875 874.84375 L 1350.6875 874.84375 Z M 1361.1875 873.34375 L 1370.1875 873.34375 L 1370.1875 874.84375 L 1361.1875 874.84375 Z M 1371.6875 873.34375 L 1380.6875 873.34375 L 1380.6875 874.84375 L 1371.6875 874.84375 Z M 1382.1875 873.34375 L 1391.1875 873.34375 L 1391.1875 874.84375 L 1382.1875 874.84375 Z M 1392.6875 873.34375 L 1401.6875 873.34375 L 1401.6875 874.84375 L 1392.6875 874.84375 Z M 1403.1875 873.34375 L 1412.1875 873.34375 L 1412.1875 874.84375 L 1403.1875 874.84375 Z M 1413.6875 873.34375 L 1422.6875 873.34375 L 1422.6875 874.84375 L 1413.6875 874.84375 Z M 1424.1875 873.34375 L 1433.1875 873.34375 L 1433.1875 874.84375 L 1424.1875 874.84375 Z M 1434.6875 873.34375 L 1443.6875 873.34375 L 1443.6875 874.84375 L 1434.6875 874.84375 Z M 1445.1875 873.34375 L 1454.1875 873.34375 L 1454.1875 874.84375 L 1445.1875 874.84375 Z M 1455.6875 873.34375 L 1464.6875 873.34375 L 1464.6875 874.84375 L 1455.6875 874.84375 Z M 1466.1875 873.34375 L 1475.1875 873.34375 L 1475.1875 874.84375 L 1466.1875 874.84375 Z M 1476.6875 873.34375 L 1485.6875 873.34375 L 1485.6875 874.84375 L 1476.6875 874.84375 Z M 1487.1875 873.34375 L 1496.1875 873.34375 L 1496.1875 874.84375 L 1487.1875 874.84375 Z M 1497.6875 873.34375 L 1506.6875 873.34375 L 1506.6875 874.84375 L 1497.6875 874.84375 Z M 1508.1875 873.34375 L 1517.1875 873.34375 L 1517.1875 874.84375 L 1508.1875 874.84375 Z M 1518.6875 873.34375 L 1527.6875 873.34375 L 1527.6875 874.84375 L 1518.6875 874.84375 Z M 1529.1875 873.34375 L 1538.1875 873.34375 L 1538.1875 874.84375 L 1529.1875 874.84375 Z M 1539.6875 873.34375 L 1548.6875 873.34375 L 1548.6875 874.84375 L 1539.6875 874.84375 Z M 1550.1875 873.34375 L 1559.1875 873.34375 L 1559.1875 874.84375 L 1550.1875 874.84375 Z M 1560.6875 873.34375 L 1569.6875 873.34375 L 1569.6875 874.84375 L 1560.6875 874.84375 Z M 1571.1875 873.34375 L 1580.1875 873.34375 L 1580.1875 874.84375 L 1571.1875 874.84375 Z M 1581.6875 873.34375 L 1590.6875 873.34375 L 1590.6875 874.84375 L 1581.6875 874.84375 Z M 1592.1875 873.34375 L 1601.1875 873.34375 L 1601.1875 874.84375 L 1592.1875 874.84375 Z M 1602.6875 873.34375 L 1611.6875 873.34375 L 1611.6875 874.84375 L 1602.6875 874.84375 Z M 1613.1875 873.34375 L 1622.1875 873.34375 L 1622.1875 874.84375 L 1613.1875 874.84375 Z M 1623.6875 873.34375 L 1632.6875 873.34375 L 1632.6875 874.84375 L 1623.6875 874.84375 Z M 1634.1875 873.34375 L 1643.1875 873.34375 L 1643.1875 874.84375 L 1634.1875 874.84375 Z M 1644.6875 873.34375 L 1653.6875 873.34375 L 1653.6875 874.84375 L 1644.6875 874.84375 Z M 1655.1875 873.34375 L 1664.1875 873.34375 L 1664.1875 874.84375 L 1655.1875 874.84375 Z M 1665.6875 873.34375 L 1674.6875 873.34375 L 1674.6875 874.84375 L 1665.6875 874.84375 Z M 1676.1875 873.34375 L 1685.1875 873.34375 L 1685.1875 874.84375 L 1676.1875 874.84375 Z M 1686.6875 873.34375 L 1695.6875 873.34375 L 1695.6875 874.84375 L 1686.6875 874.84375 Z M 1697.1875 873.34375 L 1706.1875 873.34375 L 1706.1875 874.84375 L 1697.1875 874.84375 Z M 1707.6875 873.34375 L 1716.6875 873.34375 L 1716.6875 874.84375 L 1707.6875 874.84375 Z M 1718.1875 873.34375 L 1727.1875 873.34375 L 1727.1875 874.84375 L 1718.1875 874.84375 Z M 1728.6875 873.34375 L 1737.6875 873.34375 L 1737.6875 874.84375 L 1728.6875 874.84375 Z M 1739.1875 873.34375 L 1748.1875 873.34375 L 1748.1875 874.84375 L 1739.1875 874.84375 Z M 1749.6875 873.34375 L 1758.6875 873.34375 L 1758.6875 874.84375 L 1749.6875 874.84375 Z M 1760.1875 873.34375 L 1769.1875 873.34375 L 1769.1875 874.84375 L 1760.1875 874.84375 Z M 1770.6875 873.34375 L 1779.6875 873.34375 L 1779.6875 874.84375 L 1770.6875 874.84375 Z M 1781.1875 873.34375 L 1790.1875 873.34375 L 1790.1875 874.84375 L 1781.1875 874.84375 Z M 1791.6875 873.34375 L 1800.6875 873.34375 L 1800.6875 874.84375 L 1791.6875 874.84375 Z M 1802.1875 873.34375 L 1811.1875 873.34375 L 1811.1875 874.84375 L 1802.1875 874.84375 Z M 1812.6875 873.34375 L 1821.6875 873.34375 L 1821.6875 874.84375 L 1812.6875 874.84375 Z M 1823.1875 873.34375 L 1832.1875 873.34375 L 1832.1875 874.84375 L 1823.1875 874.84375 Z M 1833.6875 873.34375 L 1842.6875 873.34375 L 1842.6875 874.84375 L 1833.6875 874.84375 Z M 1844.1875 873.34375 L 1853.1875 873.34375 L 1853.1875 874.84375 L 1844.1875 874.84375 Z M 1854.6875 873.34375 L 1863.6875 873.34375 L 1863.6875 874.84375 L 1854.6875 874.84375 Z M 1865.1875 873.34375 L 1874.1875 873.34375 L 1874.1875 874.84375 L 1865.1875 874.84375 Z M 1875.6875 873.34375 L 1884.6875 873.34375 L 1884.6875 874.84375 L 1875.6875 874.84375 Z M 1886.1875 873.34375 L 1895.1875 873.34375 L 1895.1875 874.84375 L 1886.1875 874.84375 Z M 1896.6875 873.34375 L 1905.6875 873.34375 L 1905.6875 874.84375 L 1896.6875 874.84375 Z M 1907.1875 873.34375 L 1916.1875 873.34375 L 1916.1875 874.84375 L 1907.1875 874.84375 Z M 1917.6875 873.34375 L 1926.6875 873.34375 L 1926.6875 874.84375 L 1917.6875 874.84375 Z M 1928.1875 873.34375 L 1937.1875 873.34375 L 1937.1875 874.84375 L 1928.1875 874.84375 Z M 1938.6875 873.34375 L 1947.6875 873.34375 L 1947.6875 874.84375 L 1938.6875 874.84375 Z M 1949.1875 873.34375 L 1958.1875 873.34375 L 1958.1875 874.84375 L 1949.1875 874.84375 Z M 1959.6875 873.34375 L 1968.6875 873.34375 L 1968.6875 874.84375 L 1959.6875 874.84375 Z M 1970.1875 873.34375 L 1979.1875 873.34375 L 1979.1875 874.84375 L 1970.1875 874.84375 Z M 1980.6875 873.34375 L 1989.6875 873.34375 L 1989.6875 874.84375 L 1980.6875 874.84375 Z M 1991.1875 873.34375 L 2000.1875 873.34375 L 2000.1875 874.84375 L 1991.1875 874.84375 Z M 2001.6875 873.34375 L 2010.6875 873.34375 L 2010.6875 874.84375 L 2001.6875 874.84375 Z M 2012.1875 873.34375 L 2021.1875 873.34375 L 2021.1875 874.84375 L 2012.1875 874.84375 Z M 2022.6875 873.34375 L 2031.6875 873.34375 L 2031.6875 874.84375 L 2022.6875 874.84375 Z M 2033.1875 873.34375 L 2042.1875 873.34375 L 2042.1875 874.84375 L 2033.1875 874.84375 Z M 2043.6875 873.34375 L 2052.6875 873.34375 L 2052.6875 874.84375 L 2043.6875 874.84375 Z M 2054.1875 873.34375 L 2063.1875 873.34375 L 2063.1875 874.84375 L 2054.1875 874.84375 Z M 2064.6875 873.34375 L 2073.6875 873.34375 L 2073.6875 874.84375 L 2064.6875 874.84375 Z M 2075.1875 873.34375 L 2084.1875 873.34375 L 2084.1875 874.84375 L 2075.1875 874.84375 Z M 2085.6875 873.34375 L 2094.6875 873.34375 L 2094.6875 874.84375 L 2085.6875 874.84375 Z M 2096.1875 873.34375 L 2105.1875 873.34375 L 2105.1875 874.84375 L 2096.1875 874.84375 Z M 2106.6875 873.34375 L 2115.6875 873.34375 L 2115.6875 874.84375 L 2106.6875 874.84375 Z M 2117.1875 873.34375 L 2126.1875 873.34375 L 2126.1875 874.84375 L 2117.1875 874.84375 Z M 2127.6875 873.34375 L 2136.6875 873.34375 L 2136.6875 874.84375 L 2127.6875 874.84375 Z M 2138.1875 873.34375 L 2147.1875 873.34375 L 2147.1875 874.84375 L 2138.1875 874.84375 Z M 2148.6875 873.34375 L 2157.6875 873.34375 L 2157.6875 874.84375 L 2148.6875 874.84375 Z M 2159.1875 873.34375 L 2168.1875 873.34375 L 2168.1875 874.84375 L 2159.1875 874.84375 Z M 2169.6875 873.34375 L 2178.6875 873.34375 L 2178.6875 874.84375 L 2169.6875 874.84375 Z M 2180.1875 873.34375 L 2189.1875 873.34375 L 2189.1875 874.84375 L 2180.1875 874.84375 Z M 2190.6875 873.34375 L 2199.6875 873.34375 L 2199.6875 874.84375 L 2190.6875 874.84375 Z M 2201.1875 873.34375 L 2210.1875 873.34375 L 2210.1875 874.84375 L 2201.1875 874.84375 Z M 2211.6875 873.34375 L 2220.6875 873.34375 L 2220.6875 874.84375 L 2211.6875 874.84375 Z M 2222.1875 873.34375 L 2231.1875 873.34375 L 2231.1875 874.84375 L 2222.1875 874.84375 Z M 2232.6875 873.34375 L 2241.6875 873.34375 L 2241.6875 874.84375 L 2232.6875 874.84375 Z M 2243.1875 873.34375 L 2252.1875 873.34375 L 2252.1875 874.84375 L 2243.1875 874.84375 Z M 2253.6875 873.34375 L 2262.6875 873.34375 L 2262.6875 874.84375 L 2253.6875 874.84375 Z M 2264.1875 873.34375 L 2273.1875 873.34375 L 2273.1875 874.84375 L 2264.1875 874.84375 Z M 2274.6875 873.34375 L 2283.6875 873.34375 L 2283.6875 874.84375 L 2274.6875 874.84375 Z M 2285.1875 873.34375 L 2294.1875 873.34375 L 2294.1875 874.84375 L 2285.1875 874.84375 Z M 2295.6875 873.34375 L 2304.6875 873.34375 L 2304.6875 874.84375 L 2295.6875 874.84375 Z M 2306.1875 873.34375 L 2315.1875 873.34375 L 2315.1875 874.84375 L 2306.1875 874.84375 Z M 2316.6875 873.34375 L 2325.6875 873.34375 L 2325.6875 874.84375 L 2316.6875 874.84375 Z M 2327.1875 873.34375 L 2336.1875 873.34375 L 2336.1875 874.84375 L 2327.1875 874.84375 Z M 2337.6875 873.34375 L 2346.6875 873.34375 L 2346.6875 874.84375 L 2337.6875 874.84375 Z M 2348.1875 873.34375 L 2357.1875 873.34375 L 2357.1875 874.84375 L 2348.1875 874.84375 Z M 2358.6875 873.34375 L 2367.6875 873.34375 L 2367.6875 874.84375 L 2358.6875 874.84375 Z M 2369.1875 873.34375 L 2378.1875 873.34375 L 2378.1875 874.84375 L 2369.1875 874.84375 Z M 2379.6875 873.34375 L 2388.6875 873.34375 L 2388.6875 874.84375 L 2379.6875 874.84375 Z M 2390.1875 873.34375 L 2399.1875 873.34375 L 2399.1875 874.84375 L 2390.1875 874.84375 Z M 2400.6875 873.34375 L 2409.6875 873.34375 L 2409.6875 874.84375 L 2400.6875 874.84375 Z M 2400.6875 873.34375 " fill-opacity="1" fill-rule="nonzero"/><path fill="#ab0000" d="M -38.902344 420.691406 L -38.902344 429.691406 L -40.402344 429.691406 L -40.402344 420.691406 Z M -38.902344 431.191406 L -38.902344 440.191406 L -40.402344 440.191406 L -40.402344 431.191406 Z M -38.902344 441.691406 L -38.902344 445.355469 C -38.902344 447.085938 -38.652344 448.773438 -38.148438 450.414062 L -39.585938 450.851562 C -40.128906 449.070312 -40.402344 447.234375 -40.402344 445.355469 L -40.402344 441.691406 Z M -37.671875 451.765625 C -36.578125 454.496094 -34.890625 456.804688 -32.605469 458.683594 L -33.558594 459.839844 C -36.039062 457.800781 -37.875 455.292969 -39.066406 452.320312 Z M -31.453125 459.550781 C -29.03125 461.226562 -26.355469 462.214844 -23.425781 462.515625 L -23.578125 464.007812 C -26.761719 463.679688 -29.671875 462.609375 -32.308594 460.785156 Z M -21.984375 462.601562 L -21.648438 462.605469 L -12.984375 462.605469 L -12.984375 464.105469 L -21.660156 464.105469 L -21.996094 464.101562 Z M -11.484375 462.605469 L -2.484375 462.605469 L -2.484375 464.105469 L -11.484375 464.105469 Z M -0.984375 462.605469 L 8.015625 462.605469 L 8.015625 464.105469 L -0.984375 464.105469 Z M 9.515625 462.605469 L 18.515625 462.605469 L 18.515625 464.105469 L 9.515625 464.105469 Z M 20.015625 462.605469 L 29.015625 462.605469 L 29.015625 464.105469 L 20.015625 464.105469 Z M 30.515625 462.605469 L 39.515625 462.605469 L 39.515625 464.105469 L 30.515625 464.105469 Z M 41.015625 462.605469 L 50.015625 462.605469 L 50.015625 464.105469 L 41.015625 464.105469 Z M 51.515625 462.605469 L 60.515625 462.605469 L 60.515625 464.105469 L 51.515625 464.105469 Z M 62.015625 462.605469 L 71.015625 462.605469 L 71.015625 464.105469 L 62.015625 464.105469 Z M 72.515625 462.605469 L 81.515625 462.605469 L 81.515625 464.105469 L 72.515625 464.105469 Z M 83.015625 462.605469 L 92.015625 462.605469 L 92.015625 464.105469 L 83.015625 464.105469 Z M 93.515625 462.605469 L 102.515625 462.605469 L 102.515625 464.105469 L 93.515625 464.105469 Z M 104.015625 462.605469 L 113.015625 462.605469 L 113.015625 464.105469 L 104.015625 464.105469 Z M 114.515625 462.605469 L 123.515625 462.605469 L 123.515625 464.105469 L 114.515625 464.105469 Z M 125.015625 462.605469 L 134.015625 462.605469 L 134.015625 464.105469 L 125.015625 464.105469 Z M 135.515625 462.605469 L 144.515625 462.605469 L 144.515625 464.105469 L 135.515625 464.105469 Z M 146.015625 462.605469 L 155.015625 462.605469 L 155.015625 464.105469 L 146.015625 464.105469 Z M 156.515625 462.605469 L 165.515625 462.605469 L 165.515625 464.105469 L 156.515625 464.105469 Z M 167.015625 462.605469 L 176.015625 462.605469 L 176.015625 464.105469 L 167.015625 464.105469 Z M 177.515625 462.605469 L 186.515625 462.605469 L 186.515625 464.105469 L 177.515625 464.105469 Z M 188.015625 462.605469 L 197.015625 462.605469 L 197.015625 464.105469 L 188.015625 464.105469 Z M 198.515625 462.605469 L 207.515625 462.605469 L 207.515625 464.105469 L 198.515625 464.105469 Z M 209.015625 462.605469 L 218.015625 462.605469 L 218.015625 464.105469 L 209.015625 464.105469 Z M 219.515625 462.605469 L 228.515625 462.605469 L 228.515625 464.105469 L 219.515625 464.105469 Z M 230.015625 462.605469 L 239.015625 462.605469 L 239.015625 464.105469 L 230.015625 464.105469 Z M 240.515625 462.605469 L 249.515625 462.605469 L 249.515625 464.105469 L 240.515625 464.105469 Z M 251.015625 462.605469 L 260.015625 462.605469 L 260.015625 464.105469 L 251.015625 464.105469 Z M 261.515625 462.605469 L 270.515625 462.605469 L 270.515625 464.105469 L 261.515625 464.105469 Z M 272.015625 462.605469 L 281.015625 462.605469 L 281.015625 464.105469 L 272.015625 464.105469 Z M 282.515625 462.605469 L 291.515625 462.605469 L 291.515625 464.105469 L 282.515625 464.105469 Z M 293.015625 462.605469 L 302.015625 462.605469 L 302.015625 464.105469 L 293.015625 464.105469 Z M 303.515625 462.605469 L 312.515625 462.605469 L 312.515625 464.105469 L 303.515625 464.105469 Z M 314.015625 462.605469 L 323.015625 462.605469 L 323.015625 464.105469 L 314.015625 464.105469 Z M 324.515625 462.605469 L 333.515625 462.605469 L 333.515625 464.105469 L 324.515625 464.105469 Z M 335.015625 462.605469 L 344.015625 462.605469 L 344.015625 464.105469 L 335.015625 464.105469 Z M 345.515625 462.605469 L 354.515625 462.605469 L 354.515625 464.105469 L 345.515625 464.105469 Z M 356.015625 462.605469 L 365.015625 462.605469 L 365.015625 464.105469 L 356.015625 464.105469 Z M 366.515625 462.605469 L 375.515625 462.605469 L 375.515625 464.105469 L 366.515625 464.105469 Z M 377.015625 462.605469 L 386.015625 462.605469 L 386.015625 464.105469 L 377.015625 464.105469 Z M 387.515625 462.605469 L 396.515625 462.605469 L 396.515625 464.105469 L 387.515625 464.105469 Z M 398.015625 462.605469 L 407.015625 462.605469 L 407.015625 464.105469 L 398.015625 464.105469 Z M 408.515625 462.605469 L 417.515625 462.605469 L 417.515625 464.105469 L 408.515625 464.105469 Z M 419.015625 462.605469 L 428.015625 462.605469 L 428.015625 464.105469 L 419.015625 464.105469 Z M 429.515625 462.605469 L 438.515625 462.605469 L 438.515625 464.105469 L 429.515625 464.105469 Z M 440.015625 462.605469 L 449.015625 462.605469 L 449.015625 464.105469 L 440.015625 464.105469 Z M 450.515625 462.605469 L 459.515625 462.605469 L 459.515625 464.105469 L 450.515625 464.105469 Z M 461.015625 462.605469 L 470.015625 462.605469 L 470.015625 464.105469 L 461.015625 464.105469 Z M 471.515625 462.605469 L 480.515625 462.605469 L 480.515625 464.105469 L 471.515625 464.105469 Z M 482.015625 462.605469 L 491.015625 462.605469 L 491.015625 464.105469 L 482.015625 464.105469 Z M 492.515625 462.605469 L 501.515625 462.605469 L 501.515625 464.105469 L 492.515625 464.105469 Z M 503.015625 462.605469 L 512.015625 462.605469 L 512.015625 464.105469 L 503.015625 464.105469 Z M 513.515625 462.605469 L 522.515625 462.605469 L 522.515625 464.105469 L 513.515625 464.105469 Z M 524.015625 462.605469 L 533.015625 462.605469 L 533.015625 464.105469 L 524.015625 464.105469 Z M 534.515625 462.605469 L 543.515625 462.605469 L 543.515625 464.105469 L 534.515625 464.105469 Z M 545.015625 462.605469 L 554.015625 462.605469 L 554.015625 464.105469 L 545.015625 464.105469 Z M 555.515625 462.605469 L 564.515625 462.605469 L 564.515625 464.105469 L 555.515625 464.105469 Z M 566.015625 462.605469 L 575.015625 462.605469 L 575.015625 464.105469 L 566.015625 464.105469 Z M 576.515625 462.605469 L 585.515625 462.605469 L 585.515625 464.105469 L 576.515625 464.105469 Z M 587.015625 462.605469 L 596.015625 462.605469 L 596.015625 464.105469 L 587.015625 464.105469 Z M 597.515625 462.605469 L 606.515625 462.605469 L 606.515625 464.105469 L 597.515625 464.105469 Z M 608.015625 462.605469 L 617.015625 462.605469 L 617.015625 464.105469 L 608.015625 464.105469 Z M 618.515625 462.605469 L 627.515625 462.605469 L 627.515625 464.105469 L 618.515625 464.105469 Z M 629.015625 462.605469 L 638.015625 462.605469 L 638.015625 464.105469 L 629.015625 464.105469 Z M 639.515625 462.605469 L 648.515625 462.605469 L 648.515625 464.105469 L 639.515625 464.105469 Z M 650.015625 462.605469 L 659.015625 462.605469 L 659.015625 464.105469 L 650.015625 464.105469 Z M 660.515625 462.605469 L 669.515625 462.605469 L 669.515625 464.105469 L 660.515625 464.105469 Z M 671.015625 462.605469 L 680.015625 462.605469 L 680.015625 464.105469 L 671.015625 464.105469 Z M 681.542969 462.609375 C 684.753906 462.691406 687.738281 463.539062 690.5 465.152344 L 689.742188 466.445312 C 687.203125 464.964844 684.457031 464.183594 681.503906 464.109375 Z M 691.820312 466 C 694.445312 467.84375 696.464844 470.199219 697.882812 473.070312 L 696.535156 473.734375 C 695.234375 471.09375 693.375 468.921875 690.957031 467.226562 Z M 698.519531 474.507812 C 699.378906 476.699219 699.808594 478.980469 699.808594 481.355469 L 699.808594 483.644531 L 698.308594 483.644531 L 698.308594 481.355469 C 698.308594 479.167969 697.914062 477.070312 697.121094 475.058594 Z M 699.808594 485.144531 L 699.808594 494.144531 L 698.308594 494.144531 L 698.308594 485.144531 Z M 699.808594 495.644531 L 699.808594 504.644531 L 698.308594 504.644531 L 698.308594 495.644531 Z M 699.808594 506.144531 L 699.808594 515.144531 L 698.308594 515.144531 L 698.308594 506.144531 Z M 699.808594 516.644531 L 699.808594 525.644531 L 698.308594 525.644531 L 698.308594 516.644531 Z M 699.808594 527.144531 L 699.808594 536.144531 L 698.308594 536.144531 L 698.308594 527.144531 Z M 699.808594 537.644531 L 699.808594 546.644531 L 698.308594 546.644531 L 698.308594 537.644531 Z M 699.808594 548.144531 L 699.808594 557.144531 L 698.308594 557.144531 L 698.308594 548.144531 Z M 699.808594 558.644531 L 699.808594 567.644531 L 698.308594 567.644531 L 698.308594 558.644531 Z M 699.808594 569.144531 L 699.808594 578.144531 L 698.308594 578.144531 L 698.308594 569.144531 Z M 699.808594 579.644531 L 699.808594 588.644531 L 698.308594 588.644531 L 698.308594 579.644531 Z M 699.808594 590.144531 L 699.808594 599.144531 L 698.308594 599.144531 L 698.308594 590.144531 Z M 699.808594 600.644531 L 699.808594 609.644531 L 698.308594 609.644531 L 698.308594 600.644531 Z M 699.808594 611.144531 L 699.808594 620.144531 L 698.308594 620.144531 L 698.308594 611.144531 Z M 699.808594 621.644531 L 699.808594 630.644531 L 698.308594 630.644531 L 698.308594 621.644531 Z M 699.808594 632.144531 L 699.808594 641.144531 L 698.308594 641.144531 L 698.308594 632.144531 Z M 699.808594 642.644531 L 699.808594 651.644531 L 698.308594 651.644531 L 698.308594 642.644531 Z M 699.808594 653.144531 L 699.808594 662.144531 L 698.308594 662.144531 L 698.308594 653.144531 Z M 699.808594 663.644531 L 699.808594 672.644531 L 698.308594 672.644531 L 698.308594 663.644531 Z M 699.808594 674.144531 L 699.808594 683.144531 L 698.308594 683.144531 L 698.308594 674.144531 Z M 699.808594 684.644531 L 699.808594 693.644531 L 698.308594 693.644531 L 698.308594 684.644531 Z M 699.808594 695.144531 L 699.808594 704.144531 L 698.308594 704.144531 L 698.308594 695.144531 Z M 699.808594 705.644531 L 699.808594 714.644531 L 698.308594 714.644531 L 698.308594 705.644531 Z M 699.808594 716.144531 L 699.808594 725.144531 L 698.308594 725.144531 L 698.308594 716.144531 Z M 699.808594 726.644531 L 699.808594 735.644531 L 698.308594 735.644531 L 698.308594 726.644531 Z M 699.808594 737.144531 L 699.808594 746.144531 L 698.308594 746.144531 L 698.308594 737.144531 Z M 699.808594 747.644531 L 699.808594 756.644531 L 698.308594 756.644531 L 698.308594 747.644531 Z M 699.808594 758.144531 L 699.808594 767.144531 L 698.308594 767.144531 L 698.308594 758.144531 Z M 699.808594 768.644531 L 699.808594 777.644531 L 698.308594 777.644531 L 698.308594 768.644531 Z M 699.808594 779.144531 L 699.808594 788.144531 L 698.308594 788.144531 L 698.308594 779.144531 Z M 699.808594 789.644531 L 699.808594 798.644531 L 698.308594 798.644531 L 698.308594 789.644531 Z M 699.808594 800.144531 L 699.808594 809.144531 L 698.308594 809.144531 L 698.308594 800.144531 Z M 699.808594 810.644531 L 699.808594 819.644531 L 698.308594 819.644531 L 698.308594 810.644531 Z M 699.808594 821.144531 L 699.808594 830.144531 L 698.308594 830.144531 L 698.308594 821.144531 Z M 699.808594 831.644531 L 699.808594 840.644531 L 698.308594 840.644531 L 698.308594 831.644531 Z M 699.808594 842.144531 L 699.808594 851.144531 L 698.308594 851.144531 L 698.308594 842.144531 Z M 699.808594 852.644531 L 699.808594 861.644531 L 698.308594 861.644531 L 698.308594 852.644531 Z M 699.808594 863.144531 L 699.808594 872.144531 L 698.308594 872.144531 L 698.308594 863.144531 Z M 699.863281 873.601562 C 700.097656 876.539062 701.027344 879.234375 702.648438 881.691406 L 701.398438 882.519531 C 699.632812 879.847656 698.625 876.914062 698.367188 873.722656 Z M 703.496094 882.863281 C 705.324219 885.1875 707.59375 886.925781 710.304688 888.082031 L 709.714844 889.460938 C 706.769531 888.207031 704.304688 886.316406 702.316406 883.789062 Z M 711.644531 888.585938 C 713.390625 889.164062 715.195312 889.453125 717.058594 889.453125 L 720.332031 889.453125 L 720.332031 890.953125 L 717.058594 890.953125 C 715.035156 890.953125 713.074219 890.636719 711.171875 890.011719 Z M 721.832031 889.453125 L 730.832031 889.453125 L 730.832031 890.953125 L 721.832031 890.953125 Z M 732.332031 889.453125 L 741.332031 889.453125 L 741.332031 890.953125 L 732.332031 890.953125 Z M 742.832031 889.453125 L 751.832031 889.453125 L 751.832031 890.953125 L 742.832031 890.953125 Z M 753.332031 889.453125 L 762.332031 889.453125 L 762.332031 890.953125 L 753.332031 890.953125 Z M 763.832031 889.453125 L 772.832031 889.453125 L 772.832031 890.953125 L 763.832031 890.953125 Z M 774.332031 889.453125 L 783.332031 889.453125 L 783.332031 890.953125 L 774.332031 890.953125 Z M 784.832031 889.453125 L 793.832031 889.453125 L 793.832031 890.953125 L 784.832031 890.953125 Z M 795.332031 889.453125 L 804.332031 889.453125 L 804.332031 890.953125 L 795.332031 890.953125 Z M 805.832031 889.453125 L 814.832031 889.453125 L 814.832031 890.953125 L 805.832031 890.953125 Z M 816.332031 889.453125 L 825.332031 889.453125 L 825.332031 890.953125 L 816.332031 890.953125 Z M 826.832031 889.453125 L 835.832031 889.453125 L 835.832031 890.953125 L 826.832031 890.953125 Z M 837.332031 889.453125 L 846.332031 889.453125 L 846.332031 890.953125 L 837.332031 890.953125 Z M 847.832031 889.453125 L 856.832031 889.453125 L 856.832031 890.953125 L 847.832031 890.953125 Z M 858.332031 889.453125 L 867.332031 889.453125 L 867.332031 890.953125 L 858.332031 890.953125 Z M 868.832031 889.453125 L 877.832031 889.453125 L 877.832031 890.953125 L 868.832031 890.953125 Z M 879.332031 889.453125 L 888.332031 889.453125 L 888.332031 890.953125 L 879.332031 890.953125 Z M 889.832031 889.453125 L 898.832031 889.453125 L 898.832031 890.953125 L 889.832031 890.953125 Z M 900.332031 889.453125 L 909.332031 889.453125 L 909.332031 890.953125 L 900.332031 890.953125 Z M 910.832031 889.453125 L 919.832031 889.453125 L 919.832031 890.953125 L 910.832031 890.953125 Z M 921.332031 889.453125 L 930.332031 889.453125 L 930.332031 890.953125 L 921.332031 890.953125 Z M 931.832031 889.453125 L 940.832031 889.453125 L 940.832031 890.953125 L 931.832031 890.953125 Z M 942.332031 889.453125 L 951.332031 889.453125 L 951.332031 890.953125 L 942.332031 890.953125 Z M 952.832031 889.453125 L 961.832031 889.453125 L 961.832031 890.953125 L 952.832031 890.953125 Z M 963.332031 889.453125 L 972.332031 889.453125 L 972.332031 890.953125 L 963.332031 890.953125 Z M 973.832031 889.453125 L 982.832031 889.453125 L 982.832031 890.953125 L 973.832031 890.953125 Z M 984.332031 889.453125 L 993.332031 889.453125 L 993.332031 890.953125 L 984.332031 890.953125 Z M 994.832031 889.453125 L 1003.832031 889.453125 L 1003.832031 890.953125 L 994.832031 890.953125 Z M 1005.332031 889.453125 L 1014.332031 889.453125 L 1014.332031 890.953125 L 1005.332031 890.953125 Z M 1015.832031 889.453125 L 1024.832031 889.453125 L 1024.832031 890.953125 L 1015.832031 890.953125 Z M 1026.332031 889.453125 L 1035.332031 889.453125 L 1035.332031 890.953125 L 1026.332031 890.953125 Z M 1036.832031 889.453125 L 1045.832031 889.453125 L 1045.832031 890.953125 L 1036.832031 890.953125 Z M 1047.332031 889.453125 L 1056.332031 889.453125 L 1056.332031 890.953125 L 1047.332031 890.953125 Z M 1057.832031 889.453125 L 1066.832031 889.453125 L 1066.832031 890.953125 L 1057.832031 890.953125 Z M 1068.332031 889.453125 L 1077.332031 889.453125 L 1077.332031 890.953125 L 1068.332031 890.953125 Z M 1078.832031 889.453125 L 1087.832031 889.453125 L 1087.832031 890.953125 L 1078.832031 890.953125 Z M 1089.332031 889.453125 L 1098.332031 889.453125 L 1098.332031 890.953125 L 1089.332031 890.953125 Z M 1099.832031 889.453125 L 1108.832031 889.453125 L 1108.832031 890.953125 L 1099.832031 890.953125 Z M 1110.332031 889.453125 L 1119.332031 889.453125 L 1119.332031 890.953125 L 1110.332031 890.953125 Z M 1120.832031 889.453125 L 1129.832031 889.453125 L 1129.832031 890.953125 L 1120.832031 890.953125 Z M 1131.332031 889.453125 L 1140.332031 889.453125 L 1140.332031 890.953125 L 1131.332031 890.953125 Z M 1141.832031 889.453125 L 1150.832031 889.453125 L 1150.832031 890.953125 L 1141.832031 890.953125 Z M 1152.332031 889.453125 L 1161.332031 889.453125 L 1161.332031 890.953125 L 1152.332031 890.953125 Z M 1162.832031 889.453125 L 1171.832031 889.453125 L 1171.832031 890.953125 L 1162.832031 890.953125 Z M 1173.332031 889.453125 L 1182.332031 889.453125 L 1182.332031 890.953125 L 1173.332031 890.953125 Z M 1183.832031 889.453125 L 1192.832031 889.453125 L 1192.832031 890.953125 L 1183.832031 890.953125 Z M 1194.332031 889.453125 L 1203.332031 889.453125 L 1203.332031 890.953125 L 1194.332031 890.953125 Z M 1204.832031 889.453125 L 1213.832031 889.453125 L 1213.832031 890.953125 L 1204.832031 890.953125 Z M 1215.332031 889.453125 L 1224.332031 889.453125 L 1224.332031 890.953125 L 1215.332031 890.953125 Z M 1225.832031 889.453125 L 1234.832031 889.453125 L 1234.832031 890.953125 L 1225.832031 890.953125 Z M 1236.332031 889.453125 L 1245.332031 889.453125 L 1245.332031 890.953125 L 1236.332031 890.953125 Z M 1246.832031 889.453125 L 1255.832031 889.453125 L 1255.832031 890.953125 L 1246.832031 890.953125 Z M 1257.332031 889.453125 L 1266.332031 889.453125 L 1266.332031 890.953125 L 1257.332031 890.953125 Z M 1267.832031 889.453125 L 1276.832031 889.453125 L 1276.832031 890.953125 L 1267.832031 890.953125 Z M 1278.332031 889.453125 L 1287.332031 889.453125 L 1287.332031 890.953125 L 1278.332031 890.953125 Z M 1288.832031 889.453125 L 1297.832031 889.453125 L 1297.832031 890.953125 L 1288.832031 890.953125 Z M 1299.332031 889.453125 L 1308.332031 889.453125 L 1308.332031 890.953125 L 1299.332031 890.953125 Z M 1309.832031 889.453125 L 1318.832031 889.453125 L 1318.832031 890.953125 L 1309.832031 890.953125 Z M 1320.332031 889.453125 L 1329.332031 889.453125 L 1329.332031 890.953125 L 1320.332031 890.953125 Z M 1330.832031 889.453125 L 1339.832031 889.453125 L 1339.832031 890.953125 L 1330.832031 890.953125 Z M 1341.332031 889.453125 L 1350.332031 889.453125 L 1350.332031 890.953125 L 1341.332031 890.953125 Z M 1351.832031 889.453125 L 1360.832031 889.453125 L 1360.832031 890.953125 L 1351.832031 890.953125 Z M 1362.332031 889.453125 L 1371.332031 889.453125 L 1371.332031 890.953125 L 1362.332031 890.953125 Z M 1372.832031 889.453125 L 1381.832031 889.453125 L 1381.832031 890.953125 L 1372.832031 890.953125 Z M 1383.332031 889.453125 L 1392.332031 889.453125 L 1392.332031 890.953125 L 1383.332031 890.953125 Z M 1393.832031 889.453125 L 1402.832031 889.453125 L 1402.832031 890.953125 L 1393.832031 890.953125 Z M 1404.332031 889.453125 L 1413.332031 889.453125 L 1413.332031 890.953125 L 1404.332031 890.953125 Z M 1414.832031 889.453125 L 1423.832031 889.453125 L 1423.832031 890.953125 L 1414.832031 890.953125 Z M 1425.332031 889.453125 L 1434.332031 889.453125 L 1434.332031 890.953125 L 1425.332031 890.953125 Z M 1435.832031 889.453125 L 1444.832031 889.453125 L 1444.832031 890.953125 L 1435.832031 890.953125 Z M 1446.332031 889.453125 L 1455.332031 889.453125 L 1455.332031 890.953125 L 1446.332031 890.953125 Z M 1456.832031 889.453125 L 1465.832031 889.453125 L 1465.832031 890.953125 L 1456.832031 890.953125 Z M 1467.332031 889.453125 L 1476.332031 889.453125 L 1476.332031 890.953125 L 1467.332031 890.953125 Z M 1477.832031 889.453125 L 1486.832031 889.453125 L 1486.832031 890.953125 L 1477.832031 890.953125 Z M 1488.332031 889.453125 L 1497.332031 889.453125 L 1497.332031 890.953125 L 1488.332031 890.953125 Z M 1498.832031 889.453125 L 1507.832031 889.453125 L 1507.832031 890.953125 L 1498.832031 890.953125 Z M 1509.332031 889.453125 L 1518.332031 889.453125 L 1518.332031 890.953125 L 1509.332031 890.953125 Z M 1519.832031 889.453125 L 1528.832031 889.453125 L 1528.832031 890.953125 L 1519.832031 890.953125 Z M 1530.332031 889.453125 L 1539.332031 889.453125 L 1539.332031 890.953125 L 1530.332031 890.953125 Z M 1540.832031 889.453125 L 1549.832031 889.453125 L 1549.832031 890.953125 L 1540.832031 890.953125 Z M 1551.332031 889.453125 L 1560.332031 889.453125 L 1560.332031 890.953125 L 1551.332031 890.953125 Z M 1561.832031 889.453125 L 1570.832031 889.453125 L 1570.832031 890.953125 L 1561.832031 890.953125 Z M 1572.332031 889.453125 L 1581.332031 889.453125 L 1581.332031 890.953125 L 1572.332031 890.953125 Z M 1582.832031 889.453125 L 1591.832031 889.453125 L 1591.832031 890.953125 L 1582.832031 890.953125 Z M 1593.332031 889.453125 L 1602.332031 889.453125 L 1602.332031 890.953125 L 1593.332031 890.953125 Z M 1603.832031 889.453125 L 1612.832031 889.453125 L 1612.832031 890.953125 L 1603.832031 890.953125 Z M 1614.332031 889.453125 L 1623.332031 889.453125 L 1623.332031 890.953125 L 1614.332031 890.953125 Z M 1624.832031 889.453125 L 1633.832031 889.453125 L 1633.832031 890.953125 L 1624.832031 890.953125 Z M 1635.332031 889.453125 L 1644.332031 889.453125 L 1644.332031 890.953125 L 1635.332031 890.953125 Z M 1645.832031 889.453125 L 1654.832031 889.453125 L 1654.832031 890.953125 L 1645.832031 890.953125 Z M 1656.332031 889.453125 L 1665.332031 889.453125 L 1665.332031 890.953125 L 1656.332031 890.953125 Z M 1666.832031 889.453125 L 1675.832031 889.453125 L 1675.832031 890.953125 L 1666.832031 890.953125 Z M 1677.332031 889.453125 L 1686.332031 889.453125 L 1686.332031 890.953125 L 1677.332031 890.953125 Z M 1687.832031 889.453125 L 1696.832031 889.453125 L 1696.832031 890.953125 L 1687.832031 890.953125 Z M 1698.332031 889.453125 L 1707.332031 889.453125 L 1707.332031 890.953125 L 1698.332031 890.953125 Z M 1708.832031 889.453125 L 1717.832031 889.453125 L 1717.832031 890.953125 L 1708.832031 890.953125 Z M 1719.332031 889.453125 L 1728.332031 889.453125 L 1728.332031 890.953125 L 1719.332031 890.953125 Z M 1729.832031 889.453125 L 1738.832031 889.453125 L 1738.832031 890.953125 L 1729.832031 890.953125 Z M 1740.332031 889.453125 L 1749.332031 889.453125 L 1749.332031 890.953125 L 1740.332031 890.953125 Z M 1750.832031 889.453125 L 1759.832031 889.453125 L 1759.832031 890.953125 L 1750.832031 890.953125 Z M 1761.332031 889.453125 L 1770.332031 889.453125 L 1770.332031 890.953125 L 1761.332031 890.953125 Z M 1771.832031 889.453125 L 1780.832031 889.453125 L 1780.832031 890.953125 L 1771.832031 890.953125 Z M 1782.332031 889.453125 L 1791.332031 889.453125 L 1791.332031 890.953125 L 1782.332031 890.953125 Z M 1792.832031 889.453125 L 1801.832031 889.453125 L 1801.832031 890.953125 L 1792.832031 890.953125 Z M 1803.332031 889.453125 L 1812.332031 889.453125 L 1812.332031 890.953125 L 1803.332031 890.953125 Z M 1813.832031 889.453125 L 1822.832031 889.453125 L 1822.832031 890.953125 L 1813.832031 890.953125 Z M 1824.332031 889.453125 L 1833.332031 889.453125 L 1833.332031 890.953125 L 1824.332031 890.953125 Z M 1834.832031 889.453125 L 1843.832031 889.453125 L 1843.832031 890.953125 L 1834.832031 890.953125 Z M 1845.332031 889.453125 L 1854.332031 889.453125 L 1854.332031 890.953125 L 1845.332031 890.953125 Z M 1855.832031 889.453125 L 1864.832031 889.453125 L 1864.832031 890.953125 L 1855.832031 890.953125 Z M 1866.332031 889.453125 L 1875.332031 889.453125 L 1875.332031 890.953125 L 1866.332031 890.953125 Z M 1876.832031 889.453125 L 1885.832031 889.453125 L 1885.832031 890.953125 L 1876.832031 890.953125 Z M 1887.332031 889.453125 L 1896.332031 889.453125 L 1896.332031 890.953125 L 1887.332031 890.953125 Z M 1897.832031 889.453125 L 1906.832031 889.453125 L 1906.832031 890.953125 L 1897.832031 890.953125 Z M 1908.332031 889.453125 L 1917.332031 889.453125 L 1917.332031 890.953125 L 1908.332031 890.953125 Z M 1918.832031 889.453125 L 1927.832031 889.453125 L 1927.832031 890.953125 L 1918.832031 890.953125 Z M 1929.332031 889.453125 L 1938.332031 889.453125 L 1938.332031 890.953125 L 1929.332031 890.953125 Z M 1939.832031 889.453125 L 1948.832031 889.453125 L 1948.832031 890.953125 L 1939.832031 890.953125 Z M 1950.332031 889.453125 L 1959.332031 889.453125 L 1959.332031 890.953125 L 1950.332031 890.953125 Z M 1960.832031 889.453125 L 1969.832031 889.453125 L 1969.832031 890.953125 L 1960.832031 890.953125 Z M 1971.332031 889.453125 L 1980.332031 889.453125 L 1980.332031 890.953125 L 1971.332031 890.953125 Z M 1981.832031 889.453125 L 1990.832031 889.453125 L 1990.832031 890.953125 L 1981.832031 890.953125 Z M 1992.332031 889.453125 L 2001.332031 889.453125 L 2001.332031 890.953125 L 1992.332031 890.953125 Z M 2002.832031 889.453125 L 2011.832031 889.453125 L 2011.832031 890.953125 L 2002.832031 890.953125 Z M 2013.332031 889.453125 L 2022.332031 889.453125 L 2022.332031 890.953125 L 2013.332031 890.953125 Z M 2023.832031 889.453125 L 2032.832031 889.453125 L 2032.832031 890.953125 L 2023.832031 890.953125 Z M 2034.332031 889.453125 L 2043.332031 889.453125 L 2043.332031 890.953125 L 2034.332031 890.953125 Z M 2044.832031 889.453125 L 2053.832031 889.453125 L 2053.832031 890.953125 L 2044.832031 890.953125 Z M 2055.332031 889.453125 L 2064.332031 889.453125 L 2064.332031 890.953125 L 2055.332031 890.953125 Z M 2065.832031 889.453125 L 2074.832031 889.453125 L 2074.832031 890.953125 L 2065.832031 890.953125 Z M 2076.332031 889.453125 L 2085.332031 889.453125 L 2085.332031 890.953125 L 2076.332031 890.953125 Z M 2086.832031 889.453125 L 2095.832031 889.453125 L 2095.832031 890.953125 L 2086.832031 890.953125 Z M 2097.332031 889.453125 L 2106.332031 889.453125 L 2106.332031 890.953125 L 2097.332031 890.953125 Z M 2107.832031 889.453125 L 2116.832031 889.453125 L 2116.832031 890.953125 L 2107.832031 890.953125 Z M 2118.332031 889.453125 L 2127.332031 889.453125 L 2127.332031 890.953125 L 2118.332031 890.953125 Z M 2128.828125 889.453125 L 2137.832031 889.453125 L 2137.832031 890.953125 L 2128.828125 890.953125 Z M 2139.332031 889.453125 L 2148.332031 889.453125 L 2148.332031 890.953125 L 2139.332031 890.953125 Z M 2149.832031 889.453125 L 2158.832031 889.453125 L 2158.832031 890.953125 L 2149.832031 890.953125 Z M 2160.332031 889.453125 L 2169.332031 889.453125 L 2169.332031 890.953125 L 2160.332031 890.953125 Z M 2170.832031 889.453125 L 2179.832031 889.453125 L 2179.832031 890.953125 L 2170.832031 890.953125 Z M 2181.332031 889.453125 L 2190.332031 889.453125 L 2190.332031 890.953125 L 2181.332031 890.953125 Z M 2191.832031 889.453125 L 2200.832031 889.453125 L 2200.832031 890.953125 L 2191.832031 890.953125 Z M 2202.332031 889.453125 L 2211.332031 889.453125 L 2211.332031 890.953125 L 2202.332031 890.953125 Z M 2212.832031 889.453125 L 2221.832031 889.453125 L 2221.832031 890.953125 L 2212.832031 890.953125 Z M 2223.332031 889.453125 L 2232.332031 889.453125 L 2232.332031 890.953125 L 2223.332031 890.953125 Z M 2233.828125 889.453125 L 2242.832031 889.453125 L 2242.832031 890.953125 L 2233.828125 890.953125 Z M 2244.332031 889.453125 L 2253.332031 889.453125 L 2253.332031 890.953125 L 2244.332031 890.953125 Z M 2254.832031 889.453125 L 2263.832031 889.453125 L 2263.832031 890.953125 L 2254.832031 890.953125 Z M 2265.332031 889.453125 L 2274.332031 889.453125 L 2274.332031 890.953125 L 2265.332031 890.953125 Z M 2275.832031 889.453125 L 2284.832031 889.453125 L 2284.832031 890.953125 L 2275.832031 890.953125 Z M 2286.332031 889.453125 L 2295.332031 889.453125 L 2295.332031 890.953125 L 2286.332031 890.953125 Z M 2296.832031 889.453125 L 2305.832031 889.453125 L 2305.832031 890.953125 L 2296.832031 890.953125 Z M 2307.332031 889.453125 L 2316.332031 889.453125 L 2316.332031 890.953125 L 2307.332031 890.953125 Z M 2317.832031 889.453125 L 2326.832031 889.453125 L 2326.832031 890.953125 L 2317.832031 890.953125 Z M 2328.332031 889.453125 L 2337.332031 889.453125 L 2337.332031 890.953125 L 2328.332031 890.953125 Z M 2338.832031 889.453125 L 2347.832031 889.453125 L 2347.832031 890.953125 L 2338.832031 890.953125 Z M 2349.332031 889.453125 L 2358.332031 889.453125 L 2358.332031 890.953125 L 2349.332031 890.953125 Z M 2359.832031 889.453125 L 2368.832031 889.453125 L 2368.832031 890.953125 L 2359.832031 890.953125 Z M 2370.332031 889.453125 L 2379.332031 889.453125 L 2379.332031 890.953125 L 2370.332031 890.953125 Z M 2380.832031 889.453125 L 2389.832031 889.453125 L 2389.832031 890.953125 L 2380.832031 890.953125 Z M 2391.332031 889.453125 L 2393.714844 889.453125 C 2395.859375 889.453125 2397.910156 889.027344 2399.859375 888.179688 L 2400.460938 889.554688 C 2398.316406 890.484375 2396.070312 890.953125 2393.714844 890.953125 L 2391.332031 890.953125 Z M 2401.160156 887.539062 C 2403.738281 886.113281 2405.746094 884.109375 2407.183594 881.535156 L 2408.492188 882.265625 C 2406.917969 885.089844 2404.714844 887.285156 2401.882812 888.851562 Z M 2407.828125 880.238281 C 2408.691406 878.273438 2409.125 876.207031 2409.125 874.039062 L 2409.125 871.714844 L 2410.625 871.714844 L 2410.625 874.039062 C 2410.625 876.417969 2410.152344 878.683594 2409.199219 880.84375 Z M 2409.125 870.214844 L 2409.125 861.214844 L 2410.625 861.214844 L 2410.625 870.214844 Z M 2409.125 859.714844 L 2409.125 857.878906 L 2410.625 857.878906 L 2410.625 859.714844 Z M 2409.125 859.714844 " fill-opacity="1" fill-rule="nonzero"/></svg>